<svg xmlns="http://www.w3.org/2000/svg" width="130" height="62" viewBox="0 0 130 62">
  <defs>
    <style>
      .cls-1 {
        fill: none;
      }

      .cls-2 {
        fill: #01b1c8;
      }
    </style>
  </defs>
  <g id="그룹_32658" data-name="그룹 32658" transform="translate(-115.563 -108)">
    <rect id="사각형_5928" data-name="사각형 5928" class="cls-1" width="130" height="62" transform="translate(115.563 108)"/>
    <g id="그룹_32657" data-name="그룹 32657" transform="translate(116 109.26)">
      <path id="패스_6578" data-name="패스 6578" class="cls-2" d="M1292.245,258.324V250.4l3.986-.27V247.3l-3.316.225v-5.236l3.316-.226v-2.833l-21.079,1.435V243.5l3.318-.225V248.5l-3.318.225v2.832l3.984-.27v7.92l-5.142.348v2.83l23.393-1.582v-2.831Zm-10.176-15.3,7.244-.493v5.236l-7.244.492Zm.67,8.021,5.905-.4v7.922l-5.905.4Z" transform="translate(-1172.36 -232.852)"/>
      <g id="그룹_32371" data-name="그룹 32371" transform="translate(73.677 5.652)">
        <g id="그룹_32369" data-name="그룹 32369" transform="translate(0 0)">
          <path id="패스_6579" data-name="패스 6579" class="cls-2" d="M1211.9,246.415a23.085,23.085,0,0,0,.651-5.88v-2.97l-19.857,1.352v2.831l16.233-1.1c0,2.781-.072,4.977-.555,6.011l-5.584.379v-3.275l-3.6.245v3.275l-8.522.579v2.828l23.743-1.611v-2.83Z" transform="translate(-1190.665 -237.565)"/>
        </g>
        <g id="그룹_32370" data-name="그룹 32370" transform="translate(1.853 13.526)">
          <path id="패스_6580" data-name="패스 6580" class="cls-2" d="M1194.924,270.007v7.325c0,1.51,1.173,2.191,2.8,2.081l17.235-1.165v-9.6Zm16.433,5.654-12.83.866v-3.934l12.83-.869Z" transform="translate(-1194.924 -268.649)"/>
        </g>
      </g>
      <g id="그룹_32652" data-name="그룹 32652" transform="translate(70.824 34.778)">
        <g id="그룹_32649" data-name="그룹 32649" transform="translate(39.843 1.111)">
          <path id="사각형_5835" data-name="사각형 5835" class="cls-2" d="M1287.827,349.361l17.265-1.169v3.259l-17.265,1.168Z" transform="translate(-1287.827 -332.517)"/>
          <path id="패스_6584" data-name="패스 6584" class="cls-2" d="M1296.519,314.764c1.432,3.767,7.066,5.611,7.066,5.611l1.528-3.138a9.317,9.317,0,0,1-4.774-2.941,9.9,9.9,0,0,1-1.928-5.838l-3.781.258a10.141,10.141,0,0,1-6.7,9.688l1.528,2.929S1295.087,318.724,1296.519,314.764Z" transform="translate(-1287.887 -308.457)"/>
        </g>
        <g id="그룹_32650" data-name="그룹 32650" transform="translate(21.17 0.547)">
          <path id="패스_6583" data-name="패스 6583" class="cls-2" d="M1240.49,341.037l6.551-.444v6l3.288-.222v-6.005l6.552-.444v-3.1l-16.391,1.111Z" transform="translate(-1240.49 -325.071)"/>
          <path id="패스_6586" data-name="패스 6586" class="cls-2" d="M1249.487,317.964c4.232-.287,7.675-2.968,7.675-5.977s-3.443-5.223-7.675-4.935-7.673,2.97-7.673,5.978S1245.257,318.251,1249.487,317.964Zm0-8.151c2.368-.161,4.368.938,4.368,2.4s-2,2.833-4.368,2.993-4.367-.939-4.367-2.4,2-2.832,4.367-2.993Z" transform="translate(-1241.292 -307.027)"/>
        </g>
        <g id="그룹_32651" data-name="그룹 32651" transform="translate(0 0)">
          <path id="패스_6581" data-name="패스 6581" class="cls-2" d="M1225.14,307.693l-3.745.255v21.01l3.745-.253V318.9l2.06-.14V315.63l-2.06.14Z" transform="translate(-1207.757 -306.883)"/>
          <path id="패스_6585" data-name="패스 6585" class="cls-2" d="M1194.646,325.34c-3.345.45-5.851,4.088-5.585,8.107s3.2,6.926,6.549,6.476,5.85-4.087,5.584-8.109S1197.991,324.89,1194.646,325.34Zm.76,11.5c-1.6.214-3.128-1.562-3.276-3.8s1.123-4.393,2.72-4.608,3.127,1.561,3.275,3.8S1197,336.621,1195.406,336.836Z" transform="translate(-1188.826 -318.335)"/>
          <path id="패스_6692" data-name="패스 6692" class="cls-2" d="M1194.425,310.742l-.026-2.421-2.953.231v2.39l-4.622.314v2.966l11.924-.794v-2.966Z" transform="translate(-1186.824 -308.321)"/>
        </g>
      </g>
      <g id="그룹_32654" data-name="그룹 32654">
        <g id="그룹_32653" data-name="그룹 32653" transform="translate(0 8.465)">
          <path id="패스_6693" data-name="패스 6693" class="cls-2" d="M1035.706,294.67c1.978,14.568-2.767,22.21-2.767,22.21-4.386.779-4.11,4.287-4.11,4.287h9.654a1.574,1.574,0,0,0,1.51-.884,23.246,23.246,0,0,0,2.629-7.561C1042.627,312.673,1041.621,306.488,1035.706,294.67Z" transform="translate(-1025.608 -272.731)"/>
          <path id="패스_6694" data-name="패스 6694" class="cls-2" d="M1077.362,283.23c2.808-5.98,4.872-14.677.021-20.626-2.427-2.978-7.055-5.585-16.474-6.054-17-.844-19.366-2.688-26.116-7.986-1.059.283-1.437-.136-1.437-.136,2.52.023,2.056-2.648.348-2.627a1.262,1.262,0,0,0-.705.217c-.078-.134-2.2-3.381-7.459-2.759a2.961,2.961,0,0,1-1.141-.135c-.6-.221-1.043-.553-2.068-1-.569-.247-2.224,2.279-.326,5.181.846,1.293,3.922,5.812,8.073,12.944,4.506,7.744,10.144,19.009,10.144,27.725,0,0-3.951.636-3.951,4.126H1047.8c.355,0,.959,0,1.256-1.318a21.583,21.583,0,0,0-.767-12.022c-.209-.536.8.235,2.249,2.574,0,0,1.545.948,6.695.206,0,0-.472-7.246,4.507-10.6.085-.056.129-.01.075.063-1.048,1.39-6.2,8.968-1,17.267,0,0-3.214.8-3.214,3.833h11.581a1.417,1.417,0,0,0,1.475-1.158c.215-.837.331-1.777.454-2.553.412-2.6.708-4.658,1.452-5.531a45.254,45.254,0,0,0,4.454-6.563c.05-.091.129-.054.1.043a22.184,22.184,0,0,1-3.436,6.567,2.7,2.7,0,0,0-.6,1.295c-.348,2.289-.974,6.478-.974,6.478h2.829a1.423,1.423,0,0,0,1.174-.555c.327-.535.04-.862.153-2.735A9.367,9.367,0,0,1,1077.362,283.23Z" transform="translate(-1021.118 -242.109)"/>
        </g>
        <path id="패스_6695" data-name="패스 6695" class="cls-2" d="M1066.145,226.071l1.472-4.243,1.431,4.268,4.243,1.472L1069.022,229l-1.472,4.243-1.431-4.268-4.243-1.472Z" transform="translate(-1044.864 -221.829)"/>
        <path id="패스_6696" data-name="패스 6696" class="cls-2" d="M1147.685,221.829l-19.539,12.8v9.753c5.713.882,10.161,2.819,12.656,5.88,5.835,7.156,2.6,16.139.687,20.222-.7,1.5-1.616,2.69-1.616,5.14,0,.768-.022,1.257,0,1.615.008.169.015.327.012.48l7.8,2.906Z" transform="translate(-1083.473 -221.829)"/>
      </g>
    </g>
  </g>
</svg>
